<?xml version="1.0" standalone="no"?>
<!DOCTYPE svg PUBLIC "-//W3C//DTD SVG 20010904//EN"
 "http://www.w3.org/TR/2001/REC-SVG-20010904/DTD/svg10.dtd">
<svg version="1.0" xmlns="http://www.w3.org/2000/svg"
 width="500.000000pt" height="500.000000pt" viewBox="0 0 500.000000 500.000000"
 preserveAspectRatio="xMidYMid meet">

<g transform="translate(0.000000,500.000000) scale(0.100000,-0.100000)"
fill="#000000" stroke="none">
<path d="M2320 4994 c-19 -2 -78 -9 -130 -15 -467 -53 -946 -265 -1315 -581
-471 -404 -769 -957 -856 -1588 -17 -122 -18 -497 -1 -615 58 -412 185 -751
407 -1085 397 -598 1032 -990 1765 -1091 122 -17 497 -18 615 -1 412 58 751
185 1085 407 598 397 990 1032 1091 1765 17 122 18 497 1 615 -58 412 -185
751 -407 1085 -391 588 -1016 981 -1730 1086 -96 14 -453 27 -525 18z m479
-369 c225 -32 419 -91 629 -191 645 -307 1086 -907 1198 -1630 20 -134 23
-430 5 -564 -64 -476 -262 -893 -585 -1229 -329 -342 -758 -562 -1242 -637
-134 -20 -430 -23 -564 -5 -476 64 -893 262 -1229 585 -342 329 -562 758 -637
1242 -20 134 -23 430 -5 564 64 476 262 893 585 1229 357 371 846 604 1363
651 124 11 344 4 482 -15z"/>
<path d="M2761 3951 c-7 -5 -10 -14 -6 -20 4 -7 2 -18 -4 -25 -9 -10 -8 -15 3
-19 8 -3 17 -21 21 -39 15 -72 56 -97 101 -63 19 14 18 14 -3 15 -25 0 -38 19
-48 73 -6 30 -4 37 9 37 9 0 16 5 16 11 0 6 -9 9 -20 6 -13 -3 -21 1 -25 14
-7 20 -22 24 -44 10z"/>
<path d="M2465 3896 c-15 -11 -17 -18 -9 -26 17 -17 49 -8 49 14 0 25 -16 30
-40 12z"/>
<path d="M2645 3877 c-11 -7 -33 -14 -48 -15 -41 -3 -51 -11 -34 -30 17 -20
49 -135 45 -160 -4 -24 2 -26 45 -18 38 7 48 20 22 30 -8 3 -15 15 -15 26 0
15 7 20 25 20 40 0 68 38 61 85 -8 62 -56 92 -101 62z m34 -30 c20 -25 24 -72
7 -86 -21 -18 -42 -1 -51 40 -10 44 19 75 44 46z"/>
<path d="M2478 3833 c-18 -4 -25 -23 -10 -23 13 0 34 -94 26 -114 -6 -16 -3
-17 17 -11 13 3 32 9 42 11 17 5 24 24 8 24 -5 0 -15 26 -23 57 -14 58 -23 66
-60 56z"/>
<path d="M2200 3813 c0 -5 -18 -8 -40 -8 -65 -1 -96 -52 -59 -98 16 -22 29
-27 64 -27 50 0 75 -21 55 -45 -16 -19 -50 -19 -77 0 -26 18 -38 5 -29 -31 7
-25 26 -34 26 -11 0 8 12 11 38 9 45 -4 92 27 92 62 0 37 -28 66 -63 66 -51 0
-77 11 -77 30 0 25 31 34 64 19 31 -15 37 -11 29 19 -5 20 -23 32 -23 15z"/>
<path d="M2388 3808 c-27 -9 -39 -28 -18 -28 5 0 15 -18 21 -40 10 -31 9 -43
-1 -55 -18 -22 -34 -5 -49 55 -13 50 -14 51 -45 44 -40 -8 -43 -12 -24 -27 8
-6 21 -33 28 -60 9 -35 18 -49 35 -53 26 -6 65 11 65 28 0 7 4 7 14 -1 10 -8
21 -8 40 -1 24 9 26 12 13 25 -8 8 -20 37 -27 65 -7 27 -15 52 -19 54 -3 2
-18 -1 -33 -6z"/>
<path d="M1775 3705 c-5 -2 -30 -9 -55 -15 -40 -11 -43 -13 -27 -25 25 -18 61
-153 46 -171 -14 -18 0 -18 56 -3 34 10 37 13 23 23 -9 7 -20 24 -23 39 -10
39 18 35 50 -7 20 -26 31 -32 50 -28 39 7 39 19 1 53 -29 25 -34 34 -26 49 25
47 -1 91 -53 89 -18 0 -36 -2 -42 -4z m39 -37 c20 -28 20 -33 0 -52 -23 -23
-29 -20 -42 21 -9 29 -9 39 1 45 19 12 25 10 41 -14z"/>
<path d="M1984 3703 c-54 -10 -77 -91 -39 -133 33 -36 135 -17 135 26 0 19 -6
18 -30 -6 -24 -24 -34 -25 -55 -4 -20 20 -13 27 43 43 l42 12 -15 29 c-9 17
-20 30 -24 30 -5 0 -15 2 -23 4 -7 2 -23 1 -34 -1z m34 -44 c2 -10 -6 -19 -18
-22 -23 -6 -33 4 -24 28 8 20 38 16 42 -6z"/>
<path d="M2333 3512 c-337 -92 -613 -171 -613 -177 1 -42 5 -41 642 131 608
164 624 169 620 191 -3 13 -11 23 -21 22 -9 -1 -292 -76 -628 -167z"/>
<path d="M1420 3410 c0 -67 -81 -93 -129 -41 -20 22 -34 28 -50 24 -11 -3 -21
-9 -21 -14 0 -4 25 -100 55 -211 30 -112 189 -699 354 -1306 164 -606 301
-1105 304 -1108 2 -3 16 -2 31 2 21 5 26 12 26 35 0 67 88 94 135 43 34 -36
75 -27 75 16 0 69 80 94 130 40 25 -26 32 -29 55 -20 14 5 24 14 21 19 -12 19
16 69 44 81 36 15 69 6 96 -27 27 -31 64 -25 64 11 0 13 9 35 21 50 29 37 89
37 118 0 29 -37 63 -30 72 16 15 70 89 93 137 42 35 -36 72 -33 72 6 0 59 56
94 111 72 16 -7 31 -21 34 -31 12 -36 65 -19 65 20 0 67 97 99 139 45 29 -37
63 -30 72 16 9 42 41 70 80 70 27 0 62 -24 70 -48 5 -14 49 -4 49 12 0 6 -18
82 -41 169 -40 147 -44 157 -66 157 -14 0 -34 12 -47 27 -32 36 -81 36 -113
-1 -12 -15 -23 -38 -23 -50 0 -38 -38 -41 -71 -5 -15 16 -36 29 -48 29 -50 0
-91 -40 -91 -90 0 -31 -41 -29 -68 3 -45 52 -122 29 -140 -43 -9 -39 -47 -55
-58 -25 -4 9 -20 23 -36 31 -49 26 -103 -4 -114 -62 -9 -47 -35 -52 -72 -14
-18 17 -41 30 -56 30 -34 0 -76 -39 -80 -74 -3 -31 -47 -59 -54 -36 -9 25 -48
50 -77 50 -39 0 -75 -35 -75 -73 0 -40 -43 -48 -70 -14 -26 33 -63 41 -99 23
-31 -16 -41 -34 -41 -71 0 -16 -7 -25 -26 -29 -15 -4 -28 -6 -29 -4 -3 4 -564
2071 -597 2201 -22 88 -38 112 -38 57z"/>
<path d="M2613 2462 c-575 -156 -612 -168 -607 -187 4 -11 8 -22 10 -24 3 -3
1244 329 1252 335 11 8 -12 44 -26 43 -9 -1 -293 -76 -629 -167z"/>
<path d="M3340 2171 c0 -12 81 -315 86 -320 2 -2 7 -2 10 2 8 8 -77 327 -88
327 -4 0 -8 -4 -8 -9z"/>
<path d="M3274 2162 c-8 -5 2 -55 32 -166 24 -87 45 -161 48 -163 6 -7 46 7
46 15 -1 4 -20 77 -43 162 -42 152 -53 173 -83 152z"/>
<path d="M3232 2135 c0 -11 3 -29 8 -40 11 -25 11 1 0 35 -6 20 -8 21 -8 5z"/>
<path d="M3196 2115 c11 -48 25 -76 18 -35 -4 19 -10 42 -15 50 -6 10 -7 5 -3
-15z"/>
<path d="M3137 2123 c-10 -3 -16 -10 -14 -17 3 -6 17 -56 32 -111 53 -200 55
-205 75 -205 10 0 21 4 24 8 7 12 -79 325 -90 328 -5 1 -17 -1 -27 -3z"/>
<path d="M3076 2102 c-6 -11 72 -312 85 -327 6 -5 9 -2 9 9 0 17 -79 317 -85
324 -2 2 -6 -1 -9 -6z"/>
<path d="M3051 1978 c50 -186 60 -218 70 -218 11 0 10 0 -41 189 -20 74 -42
137 -48 139 -6 2 2 -44 19 -110z"/>
<path d="M2962 2072 c-10 -7 -4 -42 29 -163 22 -85 45 -158 50 -163 5 -6 16
-6 27 0 18 9 17 15 -18 147 -21 75 -41 148 -44 162 -7 26 -21 31 -44 17z"/>
<path d="M3256 2040 c4 -19 11 -44 15 -55 6 -14 7 -9 3 15 -4 19 -11 44 -15
55 -6 14 -7 9 -3 -15z"/>
<path d="M2927 2001 c9 -34 17 -60 20 -58 5 6 -18 100 -28 111 -4 4 0 -19 8
-53z"/>
<path d="M2887 2020 c3 -19 12 -53 19 -75 13 -38 13 -38 7 -5 -3 19 -12 53
-19 75 -13 38 -13 38 -7 5z"/>
<path d="M2815 2030 c-4 -7 71 -314 81 -329 2 -1 14 1 27 5 l24 9 -37 135
c-20 74 -40 147 -44 163 -6 27 -38 38 -51 17z"/>
<path d="M3226 2010 c4 -19 11 -44 15 -55 6 -14 7 -9 3 15 -4 19 -11 44 -15
55 -6 14 -7 9 -3 -15z"/>
<path d="M2764 2003 c2 -10 21 -81 42 -158 34 -129 47 -166 58 -154 2 2 -11
58 -29 124 -18 66 -38 139 -44 163 -7 23 -16 42 -22 42 -6 0 -8 -8 -5 -17z"/>
<path d="M2746 1883 c19 -70 39 -147 45 -171 7 -24 16 -39 20 -35 11 11 -74
326 -89 331 -6 2 4 -52 24 -125z"/>
<path d="M2663 1992 c-17 -11 67 -326 88 -329 37 -7 38 11 3 137 -19 69 -39
142 -45 163 -10 36 -22 44 -46 29z"/>
<path d="M2617 1959 c4 -13 8 -18 11 -10 2 7 -1 18 -6 23 -8 8 -9 4 -5 -13z"/>
<path d="M2581 1960 c0 -8 4 -24 9 -35 5 -13 9 -14 9 -5 0 8 -4 24 -9 35 -5
13 -9 14 -9 5z"/>
<path d="M2516 1952 c-3 -5 14 -80 38 -168 41 -150 45 -159 67 -156 12 1 24 4
25 5 2 2 -28 116 -72 275 -11 39 -19 52 -34 52 -10 0 -21 -4 -24 -8z"/>
<path d="M3286 1930 c4 -19 11 -44 15 -55 6 -14 7 -9 3 15 -4 19 -11 44 -15
55 -6 14 -7 9 -3 -15z"/>
<path d="M2460 1938 c4 -40 91 -323 100 -326 8 -3 11 1 8 10 -3 7 -20 68 -37
133 -42 159 -51 185 -62 185 -5 0 -9 -1 -9 -2z"/>
<path d="M2420 1918 c0 -20 78 -309 85 -316 17 -18 11 23 -26 159 -37 141 -59
198 -59 157z"/>
<path d="M2636 1900 c4 -19 11 -44 15 -55 6 -14 7 -9 3 15 -4 19 -11 44 -15
55 -6 14 -7 9 -3 -15z"/>
<path d="M2956 1900 c4 -19 11 -44 15 -55 6 -14 7 -9 3 15 -4 19 -11 44 -15
55 -6 14 -7 9 -3 -15z"/>
<path d="M3256 1900 c4 -19 11 -44 15 -55 6 -14 7 -9 3 15 -4 19 -11 44 -15
55 -6 14 -7 9 -3 -15z"/>
<path d="M2364 1911 c-21 -6 -20 -8 23 -172 43 -161 46 -166 69 -161 13 2 24
7 24 11 0 15 -83 317 -89 322 -3 3 -15 3 -27 0z"/>
<path d="M2311 1884 c0 -11 3 -14 6 -6 3 7 2 16 -1 19 -3 4 -6 -2 -5 -13z"/>
<path d="M2600 1895 c0 -17 63 -245 67 -241 3 2 -10 57 -27 123 -29 108 -40
140 -40 118z"/>
<path d="M2926 1870 c4 -19 11 -44 15 -55 6 -14 7 -9 3 15 -4 19 -11 44 -15
55 -6 14 -7 9 -3 -15z"/>
<path d="M2271 1885 c1 -19 18 -51 18 -35 0 8 -4 22 -9 30 -5 8 -9 11 -9 5z"/>
<path d="M2218 1873 c-10 -2 -18 -8 -18 -13 0 -8 77 -296 84 -317 6 -16 46 -4
46 14 0 24 -83 323 -89 322 -3 -1 -14 -3 -23 -6z"/>
<path d="M2158 1854 c-9 -15 75 -327 89 -331 7 -3 -3 49 -23 124 -51 194 -59
219 -66 207z"/>
<path d="M2327 1830 c3 -19 12 -53 19 -75 13 -38 13 -38 7 -5 -3 19 -12 53
-19 75 -13 38 -13 38 -7 5z"/>
<path d="M3311 1834 c0 -11 3 -14 6 -6 3 7 2 16 -1 19 -3 4 -6 -2 -5 -13z"/>
<path d="M2297 1800 c3 -19 12 -53 19 -75 13 -38 13 -38 7 -5 -3 19 -12 53
-19 75 -13 38 -13 38 -7 5z"/>
<path d="M2667 1790 c3 -19 12 -53 19 -75 13 -38 13 -38 7 -5 -3 19 -12 53
-19 75 -13 38 -13 38 -7 5z"/>
<path d="M2986 1790 c4 -19 10 -42 15 -50 11 -18 1 34 -13 65 -5 13 -6 9 -2
-15z"/>
<path d="M2952 1780 c0 -8 4 -26 8 -40 6 -20 8 -21 8 -5 0 11 -3 29 -8 40 -5
12 -8 14 -8 5z"/>
<path d="M2366 1680 c4 -19 11 -44 15 -55 6 -14 7 -9 3 15 -4 19 -11 44 -15
55 -6 14 -7 9 -3 -15z"/>
<path d="M2336 1650 c4 -19 11 -44 15 -55 6 -14 7 -9 3 15 -4 19 -11 44 -15
55 -6 14 -7 9 -3 -15z"/>
<path d="M2391 1584 c0 -11 3 -14 6 -6 3 7 2 16 -1 19 -3 4 -6 -2 -5 -13z"/>
</g>
</svg>
